<svg xmlns="http://www.w3.org/2000/svg" viewBox="0 0 64 64">
  <rect width="64" height="64" rx="8" fill="#0f172a"/>
  <path d="M32 39.5A7.5 7.5 0 0 1 24.5 32 7.5 7.5 0 0 1 32 24.5a7.5 7.5 0 0 1 7.5 7.5 7.5 7.5 0 0 1-7.5 7.5m15.93-5.43c.08-.68.15-1.37.15-2.07 0-.7-.07-1.41-.15-2.14l4.52-3.5c.41-.32.51-.9.26-1.37l-4.29-7.42c-.25-.47-.83-.66-1.3-.47l-5.34 2.15c-1.11-.84-2.27-1.57-3.62-2.1l-.79-5.68A1.08 1.08 0 0 0 36.29 10h-8.58c-.54 0-.99.39-1.07.9l-.79 5.68c-1.35.54-2.51 1.27-3.62 2.1l-5.34-2.15c-.47-.19-1.05 0-1.3.47l-4.29 7.42c-.28.47-.15 1.05.26 1.37l4.52 3.56c-.08.73-.15 1.43-.15 2.08 0 .7.07 1.39.15 2.08l-4.52 3.56c-.41.32-.54.9-.26 1.37l4.29 7.42c.25.47.83.64 1.3.47l5.34-2.17c1.11.86 2.27 1.59 3.62 2.12l.79 5.68c.08.51.53.9 1.07.9h8.58c.54 0 .99-.39 1.07-.9l.79-5.68c1.35-.56 2.51-1.27 3.62-2.12l5.34 2.17c.47.17 1.05 0 1.3-.47l4.29-7.42c.25-.47.15-1.05-.26-1.37l-4.52-3.56Z" fill="white"/>
</svg>
